<svg width="324" height="68" viewBox="0 0 324 68" fill="none" xmlns="http://www.w3.org/2000/svg">
<path d="M220.907 0.116518H224.672C224.923 0.116518 225.132 0.119107 225.3 0.124286C225.472 0.129464 225.698 0.147589 225.979 0.178661C226.259 0.204554 226.498 0.243393 226.695 0.295179C226.892 0.346964 227.103 0.427232 227.33 0.535982C227.556 0.639553 227.738 0.763839 227.876 0.908839C228.019 1.05384 228.137 1.24027 228.23 1.46812C228.329 1.69598 228.378 1.95232 228.378 2.23714C228.378 2.5375 228.329 2.86634 228.23 3.22366C228.102 3.68973 227.93 4.11179 227.714 4.48982C227.497 4.86268 227.261 5.17598 227.005 5.42973C226.754 5.6783 226.459 5.8958 226.119 6.08223C225.779 6.26348 225.45 6.40589 225.13 6.50946C224.81 6.61303 224.446 6.69589 224.037 6.75803C223.634 6.815 223.267 6.85384 222.937 6.87455C222.613 6.89009 222.243 6.89786 221.83 6.89786C221.623 6.89786 221.323 6.8875 220.929 6.86678L219.763 11.1546H217.903L220.907 0.116518ZM222.28 1.91866L221.424 5.06464C221.803 5.09053 222.145 5.10348 222.45 5.10348C222.859 5.10348 223.206 5.09571 223.491 5.08018C223.781 5.05946 224.094 5.01803 224.429 4.95589C224.763 4.88857 225.041 4.79795 225.263 4.68402C225.489 4.56491 225.693 4.40179 225.875 4.19464C226.062 3.98232 226.195 3.72857 226.274 3.43339C226.313 3.29357 226.333 3.15375 226.333 3.01393C226.333 2.8275 226.286 2.66696 226.193 2.53232C226.099 2.3925 225.979 2.28375 225.831 2.20607C225.688 2.12839 225.499 2.06884 225.263 2.02741C225.031 1.9808 224.805 1.95232 224.584 1.94196C224.367 1.92643 224.109 1.91866 223.808 1.91866H222.28Z" fill="white"/>
<path d="M235.828 0C237.147 0 238.187 0.336607 238.95 1.00982C239.718 1.68304 240.102 2.61259 240.102 3.79848C240.102 4.33705 240.018 4.90928 239.851 5.51518C239.546 6.64411 239.039 7.64616 238.33 8.52134C237.626 9.39134 236.785 10.0671 235.806 10.5487C234.831 11.0304 233.795 11.2712 232.698 11.2712C232.102 11.2712 231.551 11.1909 231.044 11.0304C230.537 10.8698 230.092 10.6342 229.708 10.3235C229.324 10.0128 229.024 9.61143 228.807 9.11946C228.591 8.6275 228.483 8.0708 228.483 7.44937C228.483 6.89527 228.569 6.29973 228.741 5.66277C229.051 4.52866 229.558 3.53179 230.262 2.67214C230.97 1.80732 231.804 1.14705 232.764 0.691339C233.729 0.230446 234.75 0 235.828 0ZM235.267 1.79437C234.819 1.79437 234.368 1.86946 233.916 2.01964C233.463 2.16464 233.022 2.38214 232.594 2.67214C232.171 2.96214 231.79 3.35312 231.45 3.84509C231.111 4.33187 230.855 4.88598 230.682 5.50741C230.559 5.95795 230.498 6.38 230.498 6.77357C230.498 7.6125 230.751 8.27277 231.258 8.75437C231.77 9.23598 232.449 9.47678 233.296 9.47678C233.734 9.47678 234.179 9.4017 234.632 9.25152C235.085 9.10134 235.525 8.87866 235.953 8.58348C236.381 8.2883 236.77 7.88696 237.12 7.37946C237.469 6.87196 237.732 6.29455 237.909 5.64723C238.032 5.1967 238.094 4.78241 238.094 4.40437C238.094 3.9642 238.013 3.57321 237.85 3.23143C237.693 2.88446 237.479 2.61 237.208 2.40804C236.942 2.20607 236.645 2.0533 236.315 1.94973C235.985 1.84616 235.636 1.79437 235.267 1.79437Z" fill="white"/>
<path d="M242.14 0.116518H244.104L244.207 8.59902L249.552 0.116518H251.265L251.449 8.59902L256.713 0.116518H258.676L251.649 11.1546H249.869L249.648 2.71098L244.377 11.1546H242.598L242.14 0.116518Z" fill="white"/>
<path d="M256.839 11.1546L259.844 0.116518H267.204L266.717 1.91866H261.224L260.501 4.5675H265.587L265.1 6.36964H260.014L259.202 9.3525H264.694L264.199 11.1546H256.839Z" fill="white"/>
<path d="M276.595 3.27804C276.393 4.02375 276.026 4.69179 275.495 5.28214C274.968 5.86732 274.272 6.28678 273.406 6.54053L275.318 11.1546H272.896L271.125 6.87455H269.346L268.179 11.1546H266.319L269.324 0.116518H273.79C275.768 0.116518 276.757 0.805268 276.757 2.18277C276.757 2.50384 276.703 2.86893 276.595 3.27804ZM270.697 1.91089L269.84 5.07241H271.553C271.932 5.07241 272.262 5.05428 272.542 5.01803C272.823 4.98178 273.111 4.91187 273.406 4.8083C273.706 4.69955 273.957 4.53384 274.159 4.31116C274.361 4.0833 274.508 3.79848 274.602 3.4567C274.646 3.29616 274.668 3.14598 274.668 3.00616C274.668 2.27598 274.031 1.91089 272.756 1.91089H270.697Z" fill="white"/>
<path d="M276.936 11.1546L279.94 0.116518H287.3L286.813 1.91866H281.321L280.597 4.5675H285.683L285.196 6.36964H280.11L279.298 9.3525H284.79L284.296 11.1546H276.936Z" fill="white"/>
<path d="M292.764 1.91866H290.852L288.829 9.3525H290.18C290.52 9.3525 290.803 9.34732 291.029 9.33696C291.256 9.32661 291.553 9.29036 291.922 9.22821C292.296 9.16607 292.626 9.08062 292.912 8.97187C293.197 8.85795 293.507 8.68964 293.842 8.46696C294.176 8.23911 294.479 7.96464 294.75 7.64357C295.247 7.04803 295.601 6.3567 295.813 5.56955C295.921 5.16045 295.975 4.785 295.975 4.44321C295.975 4.06518 295.911 3.72598 295.783 3.42562C295.66 3.12009 295.49 2.87152 295.274 2.67991C295.062 2.4883 294.831 2.33554 294.58 2.22161C294.329 2.1025 294.058 2.01964 293.768 1.97304C293.532 1.93679 293.197 1.91866 292.764 1.91866ZM293.199 0.116518C293.918 0.116518 294.555 0.18125 295.111 0.310714C295.672 0.435 296.13 0.605893 296.484 0.823393C296.844 1.03571 297.139 1.29723 297.37 1.60795C297.602 1.91348 297.764 2.23455 297.858 2.57116C297.951 2.90777 297.998 3.27286 297.998 3.66643C297.998 4.16357 297.917 4.7125 297.754 5.31321C297.626 5.78964 297.464 6.25053 297.267 6.69589C297.075 7.13607 296.822 7.58661 296.507 8.0475C296.192 8.50321 295.837 8.91491 295.444 9.28259C295.055 9.64509 294.585 9.97393 294.034 10.2691C293.487 10.5591 292.892 10.774 292.247 10.9138C291.917 10.9863 291.558 11.0433 291.169 11.0847C290.781 11.121 290.463 11.1417 290.217 11.1469C289.971 11.1521 289.629 11.1546 289.191 11.1546H286.474L289.479 0.116518H293.199Z" fill="white"/>
<path d="M307.338 1.7633H305.618L304.784 4.82384C305.862 4.79795 306.627 4.74357 307.08 4.66071C308.222 4.44839 308.901 3.94607 309.118 3.15375C309.152 3.01911 309.169 2.89741 309.169 2.78866C309.169 2.10509 308.559 1.7633 307.338 1.7633ZM306.283 6.0667C306.243 6.0667 305.623 6.09518 304.423 6.15214L303.551 9.3525H305.205C305.402 9.3525 305.569 9.3525 305.707 9.3525C305.85 9.34732 306.047 9.33437 306.298 9.31366C306.554 9.29295 306.775 9.26446 306.962 9.22821C307.149 9.18678 307.356 9.12723 307.582 9.04955C307.813 8.97187 308.01 8.87866 308.173 8.76991C308.335 8.66116 308.483 8.52393 308.616 8.35821C308.753 8.18732 308.852 7.99571 308.911 7.78339C308.945 7.66946 308.963 7.55295 308.963 7.43384C308.963 7.00402 308.726 6.67 308.254 6.43178C307.781 6.18839 307.124 6.0667 306.283 6.0667ZM304.201 0.116518H308.202C308.694 0.116518 309.13 0.160536 309.509 0.248571C309.888 0.336607 310.188 0.450536 310.409 0.590357C310.636 0.725 310.82 0.888125 310.963 1.07973C311.106 1.27134 311.202 1.46036 311.251 1.64679C311.305 1.83321 311.332 2.03 311.332 2.23714C311.332 2.45982 311.3 2.69027 311.236 2.92848C311.143 3.28062 310.953 3.63795 310.668 4.00045C310.387 4.36295 310.075 4.66848 309.73 4.91705C310.104 5.0983 310.395 5.365 310.601 5.71714C310.808 6.06928 310.911 6.46545 310.911 6.90562C310.911 7.15937 310.874 7.42089 310.801 7.69018C310.756 7.86107 310.692 8.03714 310.609 8.21839C310.53 8.39446 310.412 8.59902 310.254 8.83205C310.097 9.06509 309.915 9.28777 309.708 9.50009C309.501 9.70723 309.241 9.91437 308.926 10.1215C308.611 10.3287 308.266 10.5073 307.892 10.6575C307.523 10.8025 307.08 10.9216 306.563 11.0148C306.047 11.108 305.495 11.1546 304.91 11.1546H301.197L304.201 0.116518Z" fill="white"/>
<path d="M313.312 0.116518H315.512L317.15 4.39661L321.181 0.116518H323.307L317.682 5.99678L316.279 11.1546H314.19L315.593 5.99678L313.312 0.116518Z" fill="white"/>
<path d="M34.1696 51.0692C34.1696 64.3937 44.2298 67.627 61.1133 67.627C76.347 67.627 86.7644 65.1194 86.7644 52.7864C86.7644 41.1108 76.7026 40.1193 60.4662 39.1278C48.4663 38.3356 45.9981 37.6764 45.9981 34.1108C45.9981 30.68 48.4727 29.561 58.8837 29.561C69.881 29.561 74.4138 30.8111 74.4138 35.8945H85.0026C85.0026 24.4776 75.5878 20.1271 60.0578 20.1271C44.6399 20.1271 35.4093 23.3603 35.4093 33.5199C35.4093 43.877 42.5288 47.0456 60.4678 47.9689C73.8211 48.6946 76.1756 49.352 76.1756 53.178C76.1756 56.8046 72.8233 58.1949 61.7075 58.1949C48.2933 58.1949 44.7648 55.9514 44.7648 51.0692H34.1696ZM154.646 20.7845H140.351L123.117 53.3774L105.877 20.7863H91.5807V66.9624H102.17V35.2946L119.292 66.9624H126.937L144.059 35.2946V66.9624H154.646V20.7845ZM203.445 66.9695H215.155L193.859 20.7863H179.562L158.323 66.9624H169.976L174.388 57.1297H199.037L203.445 66.9695ZM178.329 48.2958L186.741 29.561L195.092 48.2958H178.329ZM266.961 37.7429C266.961 27.4504 260.548 20.7917 251.193 20.7917H218.839V66.9695H229.427V54.6293H246.489L253.132 66.9624H265.603L258.016 53.2391C263.543 50.8033 266.961 45.2619 266.961 37.7429ZM229.427 30.7519H248.25C251.425 30.7519 256.366 30.7519 256.366 37.7429C256.366 44.6692 251.425 44.6692 248.25 44.6692H229.427V30.7519ZM320.452 20.7863H269.862V30.7429H289.866V66.9606H300.455V30.7501H320.452V20.7863Z" fill="white"/>
<path d="M28.6591 42.2676H13.2412V42.2658C13.6849 41.2491 16.7697 39.9666 18.3778 39.4277L18.414 39.4155C23.1536 37.8136 29.0387 35.8245 29.0387 29.4945C29.0387 22.8412 24.8503 20.1271 14.5866 20.1271C5.58991 20.1271 0.373195 22.2898 0.373195 31.9823H8.32881C8.32881 29.1676 9.28983 27.2725 14.6875 27.2725C18.8824 27.2725 20.0852 28.1042 20.0852 30.1465C20.0852 34.9766 0 34.3354 0 45.4613V50.2573H28.6591V42.2676Z" fill="white"/>
</svg>
